PathFileType	4	(X/Y/Z)	Patient4_TMGait_0pt3_03_right_29.trc.trc
DataRate	CameraRate	NumFrames	NumMarkers	Units	OrigDataRate	OrigDataStartFrame	OrigNumFrames
53.030303030303	53.030303030303	4	33	mm	53.030303030303	71	       141
Frame#	Time	Sacral			L.Shoulder			Chest			R.Shoulder			Neck			R.ASIS			L.ASIS			R.Thigh.Superior			R.Thigh.Lateral			R.Thigh.Inferior			R.Patella			L.Thigh.Superior			L.Thigh.Lateral			L.Thigh.Inferior			L.Patella			L.Shank.Superior			L.Shank.Lateral			L.Shank.Inferior			R.Shank.Superior			R.Shank.Lateral			R.Shank.Inferior			R.Heel			R.Midfoot.Superior			R.Midfoot.Lateral			R.Toe			L.Heel			L.Midfoot.Lateral			L.Midfoot.Superior			L.Toe			L.Elbow			L.Wrist			R.Elbow			R.Wrist			
		X1	Y1	Z1	X2	Y2	Z2	X3	Y3	Z3	X4	Y4	Z4	X5	Y5	Z5	X6	Y6	Z6	X7	Y7	Z7	X8	Y8	Z8	X9	Y9	Z9	X10	Y10	Z10	X11	Y11	Z11	X12	Y12	Z12	X13	Y13	Z13	X14	Y14	Z14	X15	Y15	Z15	X16	Y16	Z16	X17	Y17	Z17	X18	Y18	Z18	X19	Y19	Z19	X20	Y20	Z20	X21	Y21	Z21	X22	Y22	Z22	X23	Y23	Z23	X24	Y24	Z24	X25	Y25	Z25	X26	Y26	Z26	X27	Y27	Z27	X28	Y28	Z28	X29	Y29	Z29	X30	Y30	Z30	X31	Y31	Z31	X32	Y32	Z32	X33	Y33	Z33	

71	55.430000000000	684.393321159224	1007.229674048830	612.551949189337	838.419484487146	1426.610516866954	400.754423189990	970.054616329096	1352.922252190752	537.380502558994	929.370733916974	1432.244424077031	722.002706211552	856.292722692306	1488.726699337133	557.118632878131	925.276760365708	928.935068878283	686.009638182137	867.138635008552	960.038341593145	418.563726301916	933.729583745847	721.397301442027	644.651757604526	847.257145100043	616.288174688053	709.568751031245	905.389567904563	560.858348345470	618.134805519332	894.054330681772	469.926398623110	621.061232877379	938.038844147934	765.230311892120	438.984006545211	873.140592104859	643.258588973385	361.687457330809	973.277042818264	579.698136504472	419.014408476575	989.719022415742	516.390159948714	415.045328444824	979.055515887664	446.197617394707	398.231386276191	918.679066315850	317.513469747016	337.773182783811	1009.008096130356	218.302339680443	388.106438667025	847.961242222067	387.203640745594	627.998637525928	764.416340387135	294.516378387972	693.669532130107	779.930478593299	198.012987012209	622.489900531789	618.567414236358	46.205074732320	594.924351594115	791.364236333994	95.038265298187	627.379887467028	702.523897155521	37.619542879030	667.938940360859	910.637545257351	40.717281049609	655.277489566418	927.805185838430	39.738360419017	416.157835578608	1003.787889840699	45.487228102353	337.901939908800	1075.350600333609	121.255188597671	362.878782037679	1208.933550932212	90.952726142299	338.448248753788	678.362914661064	1111.728675693174	319.510090175261	634.325232580174	855.466610177605	357.381156359951	1132.280889090528	1173.905629238236	830.280791497044	1337.566743126398	1298.753037391138	752.060007280610	
72	55.448857142857	685.141701705772	1006.038043085119	609.240095294553	838.997090247790	1425.424938592123	397.283329026226	970.649910729610	1351.873424638731	534.063478422541	929.642214119392	1431.300356575167	718.510863826327	856.663422602562	1487.678617039013	553.685029652410	925.957152678305	928.237769656165	683.903225741265	868.540681514422	958.213720529029	416.156000729205	933.553652580445	720.311285473217	643.231192499973	845.985443240176	615.717560538629	708.124529018641	903.941120690349	559.694547745565	617.167446539187	891.698426855068	468.713604085208	620.198057211827	938.459275679515	762.280796912925	436.563266618166	871.353960457433	640.542403089743	360.469288580956	971.323481624404	576.873719891550	417.471922930643	986.371455476082	513.493553631366	414.004617542150	976.279077499700	443.201775785544	397.231756780158	915.497162173098	314.586798203688	337.370559136520	1005.448982981019	215.347008934990	388.111580949948	845.023831592859	386.273004708285	627.168308734459	760.709973313097	294.468586213139	693.182836295082	775.392666949730	197.684308422131	622.188826430424	612.938996123232	46.543701723384	594.989518456916	785.899014340073	95.084626811457	627.354218221618	696.906640002881	37.798031274861	667.975287308916	904.999258999048	40.533148673635	655.316551630680	922.993774024205	38.346547266879	416.476888973173	998.857455855677	43.457732977704	338.019927365454	1071.452316821551	117.819023968261	363.461664922327	1204.530473781477	85.635305239542	338.633929319278	680.610808083175	1109.595964995648	316.757902286865	638.259553467008	853.007261573585	355.967020202729	1135.965647567444	1175.908194584554	825.444663603572	1339.699043683164	1303.350219146320	746.973196426069	
73	55.467714285714	685.955096687414	1004.681618065984	605.802095233098	839.688443429700	1424.000018986487	393.531685171116	971.303978245823	1350.722806446719	530.571134048997	929.879840175283	1430.273768358690	714.838076835887	857.098094270344	1486.522395337101	549.940453124094	926.810733256755	927.405380282772	681.585994791472	870.007088727380	956.383649240021	413.582217734953	933.782231676048	719.156918727112	641.452549040353	845.303118301445	614.981150175146	706.349402566946	903.060841016954	558.442174383550	615.797406172471	889.959523638075	467.331078549455	618.939898095887	939.236172834234	759.545604429923	433.977331122740	870.282494382176	637.959393254445	359.130116656196	970.162124481898	574.211034680564	415.864782873572	984.126079250717	510.708181805617	412.873019538014	974.314088013995	440.284629519859	396.238692088733	912.813264018598	311.871481431339	336.954426402408	1002.034073735371	212.339610202805	388.160669254784	842.537218399318	385.195532357976	626.037575109680	757.384132487950	294.423608252652	692.466047909756	771.068635268229	197.314125900220	621.754774049009	607.341180302794	47.035453173378	595.072019287906	780.536255751067	95.228391627486	627.422217813653	691.320638769765	38.061939028045	668.026342709687	899.379547365691	40.325026679537	655.358460269536	917.621144560021	37.325079969123	416.862373087639	993.409432103330	41.441554311600	338.225241355273	1067.388981164851	114.030171537638	364.158607447011	1199.803611001640	79.318042851853	339.016765462719	683.635746361133	1106.801992862696	313.540379272544	642.984355011060	849.910631585728	353.571366655850	1138.702597003387	1177.008080420202	820.750002222929	1341.736269288465	1305.966671138466	742.268177535645	
74	55.486571428571	686.841913071152	1003.336051738399	602.275662959034	840.483299381124	1422.499703785291	389.554091317834	972.041108372919	1349.597561525208	526.904520504677	930.185853068503	1429.289332606468	711.001675753233	857.635100159919	1485.386999223478	545.929466567508	927.817722312738	926.527295083600	678.997942539100	871.480109385076	954.733690945437	410.804476946981	934.264321504733	718.005785174858	639.288783358782	845.045711429631	614.195477942559	704.276062467800	902.545874238743	557.182305860935	614.055459228202	888.630845339550	465.896178136253	617.345855239639	940.361244465917	757.268945835731	431.245874496054	870.063329304046	635.712310742753	357.610860014320	969.905989924628	571.919734912564	414.180135383834	983.125958644975	508.228778300517	411.653324876667	973.294034439726	437.638795751070	395.248429183429	910.850124148706	309.561671047916	336.430388946735	998.945582020291	209.490137991452	388.211695369495	840.341227164259	384.087435256165	624.667382295282	754.319229571165	294.458641041461	691.569549348861	766.899451415072	196.983720486044	621.231354646190	601.783409707383	47.733665000449	595.189551340170	775.270619805237	95.456686114275	627.569419553876	685.773611280558	38.433933430832	668.102944827221	893.781734262793	40.088433347209	655.402892009725	911.981687210103	36.709604555886	417.230013799236	987.756137246160	39.599240883494	338.461017993887	1063.325428104405	110.208530879300	364.899691471201	1194.983656595944	72.582167292614	339.566647893829	687.298102210318	1103.629186998437	309.850965530326	648.437437315488	846.436367117070	350.175533555361	1140.560481043112	1177.282877817145	816.237831264927	1343.745050189309	1306.697478064700	737.943228035104	
